<mxfile host="app.diagrams.net" modified="2021-02-25T04:50:04.777Z" agent="5.0 (Windows NT 10.0; Win64; x64) AppleWebKit/537.36 (KHTML, like Gecko) Chrome/88.0.4324.190 Safari/537.36" etag="nak5_aZPxU7rQmIHLvBR" version="14.4.3" type="github">
  <diagram id="qozvYP8kOh8lCwxc9VR1" name="Page-1">
    <mxGraphModel dx="942" dy="643" grid="1" gridSize="10" guides="1" tooltips="1" connect="1" arrows="1" fold="1" page="1" pageScale="1" pageWidth="1169" pageHeight="1654" math="0" shadow="0">
      <root>
        <mxCell id="0" />
        <mxCell id="1" parent="0" />
        <mxCell id="JUvlRgsE2TV-GKaZQ5VT-11" style="edgeStyle=orthogonalEdgeStyle;rounded=0;orthogonalLoop=1;jettySize=auto;html=1;exitX=0.5;exitY=1;exitDx=0;exitDy=0;entryX=0.5;entryY=0;entryDx=0;entryDy=0;" edge="1" parent="1" source="JUvlRgsE2TV-GKaZQ5VT-1" target="JUvlRgsE2TV-GKaZQ5VT-3">
          <mxGeometry relative="1" as="geometry" />
        </mxCell>
        <mxCell id="JUvlRgsE2TV-GKaZQ5VT-1" value="h&lt;sub&gt;0&lt;/sub&gt;" style="rounded=0;whiteSpace=wrap;html=1;rotation=0;direction=north;" vertex="1" parent="1">
          <mxGeometry x="130" y="513" width="30" height="75" as="geometry" />
        </mxCell>
        <mxCell id="JUvlRgsE2TV-GKaZQ5VT-12" style="edgeStyle=orthogonalEdgeStyle;rounded=0;orthogonalLoop=1;jettySize=auto;html=1;exitX=0.5;exitY=1;exitDx=0;exitDy=0;entryX=0.5;entryY=0;entryDx=0;entryDy=0;" edge="1" parent="1" source="JUvlRgsE2TV-GKaZQ5VT-3" target="JUvlRgsE2TV-GKaZQ5VT-7">
          <mxGeometry relative="1" as="geometry" />
        </mxCell>
        <mxCell id="JUvlRgsE2TV-GKaZQ5VT-16" style="edgeStyle=orthogonalEdgeStyle;rounded=0;orthogonalLoop=1;jettySize=auto;html=1;exitX=1;exitY=0.5;exitDx=0;exitDy=0;entryX=0;entryY=0.5;entryDx=0;entryDy=0;" edge="1" parent="1" source="JUvlRgsE2TV-GKaZQ5VT-3" target="JUvlRgsE2TV-GKaZQ5VT-4">
          <mxGeometry relative="1" as="geometry" />
        </mxCell>
        <mxCell id="JUvlRgsE2TV-GKaZQ5VT-3" value="h&lt;span style=&quot;font-size: 10px&quot;&gt;&lt;sub&gt;1&lt;/sub&gt;&lt;/span&gt;" style="rounded=0;whiteSpace=wrap;html=1;rotation=0;direction=north;" vertex="1" parent="1">
          <mxGeometry x="180" y="513" width="30" height="75" as="geometry" />
        </mxCell>
        <mxCell id="JUvlRgsE2TV-GKaZQ5VT-18" style="edgeStyle=orthogonalEdgeStyle;rounded=0;orthogonalLoop=1;jettySize=auto;html=1;exitX=1;exitY=0.5;exitDx=0;exitDy=0;" edge="1" parent="1" source="JUvlRgsE2TV-GKaZQ5VT-4" target="JUvlRgsE2TV-GKaZQ5VT-6">
          <mxGeometry relative="1" as="geometry" />
        </mxCell>
        <mxCell id="JUvlRgsE2TV-GKaZQ5VT-85" style="edgeStyle=orthogonalEdgeStyle;rounded=0;orthogonalLoop=1;jettySize=auto;html=1;exitX=1;exitY=0.5;exitDx=0;exitDy=0;entryX=0;entryY=0.25;entryDx=0;entryDy=0;dashed=1;curved=1;" edge="1" parent="1" source="JUvlRgsE2TV-GKaZQ5VT-4" target="JUvlRgsE2TV-GKaZQ5VT-10">
          <mxGeometry relative="1" as="geometry" />
        </mxCell>
        <mxCell id="JUvlRgsE2TV-GKaZQ5VT-4" value="&lt;span style=&quot;font-size: 10px&quot;&gt;m&lt;sub&gt;1&lt;/sub&gt;&lt;/span&gt;" style="rounded=0;whiteSpace=wrap;html=1;rotation=0;direction=north;" vertex="1" parent="1">
          <mxGeometry x="180" y="410" width="30" height="75" as="geometry" />
        </mxCell>
        <mxCell id="JUvlRgsE2TV-GKaZQ5VT-15" style="edgeStyle=orthogonalEdgeStyle;rounded=0;orthogonalLoop=1;jettySize=auto;html=1;exitX=1;exitY=0.5;exitDx=0;exitDy=0;entryX=0;entryY=0.5;entryDx=0;entryDy=0;" edge="1" parent="1" source="JUvlRgsE2TV-GKaZQ5VT-5" target="JUvlRgsE2TV-GKaZQ5VT-3">
          <mxGeometry relative="1" as="geometry" />
        </mxCell>
        <mxCell id="JUvlRgsE2TV-GKaZQ5VT-5" value="&lt;span style=&quot;font-size: 10px&quot;&gt;x&lt;sub&gt;0&lt;/sub&gt;&lt;/span&gt;" style="rounded=0;whiteSpace=wrap;html=1;rotation=0;direction=north;fillColor=#99CCFF;" vertex="1" parent="1">
          <mxGeometry x="180" y="621" width="30" height="75" as="geometry" />
        </mxCell>
        <mxCell id="JUvlRgsE2TV-GKaZQ5VT-6" value="&lt;span style=&quot;font-size: 10px&quot;&gt;x&lt;/span&gt;&lt;span style=&quot;font-size: 8.33333px&quot;&gt;&lt;sub&gt;1&lt;/sub&gt;&lt;/span&gt;" style="rounded=0;whiteSpace=wrap;html=1;rotation=0;direction=north;fillColor=#99CCFF;" vertex="1" parent="1">
          <mxGeometry x="180" y="296" width="30" height="75" as="geometry" />
        </mxCell>
        <mxCell id="JUvlRgsE2TV-GKaZQ5VT-17" style="edgeStyle=orthogonalEdgeStyle;rounded=0;orthogonalLoop=1;jettySize=auto;html=1;exitX=1;exitY=0.5;exitDx=0;exitDy=0;entryX=0;entryY=0.5;entryDx=0;entryDy=0;" edge="1" parent="1" source="JUvlRgsE2TV-GKaZQ5VT-7" target="JUvlRgsE2TV-GKaZQ5VT-8">
          <mxGeometry relative="1" as="geometry" />
        </mxCell>
        <mxCell id="JUvlRgsE2TV-GKaZQ5VT-106" style="edgeStyle=orthogonalEdgeStyle;curved=1;rounded=0;orthogonalLoop=1;jettySize=auto;html=1;exitX=0.75;exitY=1;exitDx=0;exitDy=0;dashed=1;" edge="1" parent="1" source="JUvlRgsE2TV-GKaZQ5VT-7">
          <mxGeometry relative="1" as="geometry">
            <mxPoint x="650" y="532" as="targetPoint" />
            <Array as="points">
              <mxPoint x="270" y="500" />
              <mxPoint x="650" y="500" />
            </Array>
          </mxGeometry>
        </mxCell>
        <mxCell id="JUvlRgsE2TV-GKaZQ5VT-7" value="h&lt;span style=&quot;font-size: 10px&quot;&gt;&lt;sub&gt;2&lt;/sub&gt;&lt;/span&gt;" style="rounded=0;whiteSpace=wrap;html=1;rotation=0;direction=north;" vertex="1" parent="1">
          <mxGeometry x="240" y="513" width="30" height="75" as="geometry" />
        </mxCell>
        <mxCell id="JUvlRgsE2TV-GKaZQ5VT-19" style="edgeStyle=orthogonalEdgeStyle;rounded=0;orthogonalLoop=1;jettySize=auto;html=1;exitX=1;exitY=0.5;exitDx=0;exitDy=0;entryX=0;entryY=0.5;entryDx=0;entryDy=0;" edge="1" parent="1" source="JUvlRgsE2TV-GKaZQ5VT-8" target="JUvlRgsE2TV-GKaZQ5VT-10">
          <mxGeometry relative="1" as="geometry" />
        </mxCell>
        <mxCell id="JUvlRgsE2TV-GKaZQ5VT-8" value="&lt;span style=&quot;font-size: 10px&quot;&gt;m&lt;/span&gt;&lt;span style=&quot;font-size: 8.33333px&quot;&gt;&lt;sub&gt;2&lt;/sub&gt;&lt;/span&gt;" style="rounded=0;whiteSpace=wrap;html=1;rotation=0;direction=north;" vertex="1" parent="1">
          <mxGeometry x="240" y="410" width="30" height="75" as="geometry" />
        </mxCell>
        <mxCell id="JUvlRgsE2TV-GKaZQ5VT-14" style="edgeStyle=orthogonalEdgeStyle;rounded=0;orthogonalLoop=1;jettySize=auto;html=1;exitX=1;exitY=0.5;exitDx=0;exitDy=0;entryX=0;entryY=0.5;entryDx=0;entryDy=0;" edge="1" parent="1" source="JUvlRgsE2TV-GKaZQ5VT-9" target="JUvlRgsE2TV-GKaZQ5VT-7">
          <mxGeometry relative="1" as="geometry" />
        </mxCell>
        <mxCell id="JUvlRgsE2TV-GKaZQ5VT-9" value="&lt;span style=&quot;font-size: 10px&quot;&gt;x&lt;/span&gt;&lt;span style=&quot;font-size: 8.33333px&quot;&gt;&lt;sub&gt;1&lt;/sub&gt;&lt;/span&gt;" style="rounded=0;whiteSpace=wrap;html=1;rotation=0;direction=north;fillColor=#99CCFF;" vertex="1" parent="1">
          <mxGeometry x="240" y="621" width="30" height="75" as="geometry" />
        </mxCell>
        <mxCell id="JUvlRgsE2TV-GKaZQ5VT-10" value="&lt;span style=&quot;font-size: 10px&quot;&gt;x&lt;/span&gt;&lt;span style=&quot;font-size: 6.94444px&quot;&gt;&lt;sub&gt;2&lt;/sub&gt;&lt;/span&gt;" style="rounded=0;whiteSpace=wrap;html=1;rotation=0;direction=north;fillColor=#99CCFF;" vertex="1" parent="1">
          <mxGeometry x="240" y="296" width="30" height="75" as="geometry" />
        </mxCell>
        <mxCell id="JUvlRgsE2TV-GKaZQ5VT-20" style="edgeStyle=orthogonalEdgeStyle;rounded=0;orthogonalLoop=1;jettySize=auto;html=1;exitX=0.5;exitY=1;exitDx=0;exitDy=0;entryX=0.5;entryY=0;entryDx=0;entryDy=0;" edge="1" parent="1" source="JUvlRgsE2TV-GKaZQ5VT-21" target="JUvlRgsE2TV-GKaZQ5VT-23">
          <mxGeometry relative="1" as="geometry" />
        </mxCell>
        <mxCell id="JUvlRgsE2TV-GKaZQ5VT-21" value="h&lt;sub&gt;0&lt;/sub&gt;" style="rounded=0;whiteSpace=wrap;html=1;rotation=0;direction=north;" vertex="1" parent="1">
          <mxGeometry x="300" y="513" width="30" height="75" as="geometry" />
        </mxCell>
        <mxCell id="JUvlRgsE2TV-GKaZQ5VT-22" style="edgeStyle=orthogonalEdgeStyle;rounded=0;orthogonalLoop=1;jettySize=auto;html=1;exitX=1;exitY=0.5;exitDx=0;exitDy=0;entryX=0;entryY=0.5;entryDx=0;entryDy=0;" edge="1" parent="1" source="JUvlRgsE2TV-GKaZQ5VT-23" target="JUvlRgsE2TV-GKaZQ5VT-25">
          <mxGeometry relative="1" as="geometry" />
        </mxCell>
        <mxCell id="JUvlRgsE2TV-GKaZQ5VT-107" style="edgeStyle=orthogonalEdgeStyle;curved=1;rounded=0;orthogonalLoop=1;jettySize=auto;html=1;exitX=0.75;exitY=1;exitDx=0;exitDy=0;entryX=0.75;entryY=0;entryDx=0;entryDy=0;" edge="1" parent="1" source="JUvlRgsE2TV-GKaZQ5VT-23" target="JUvlRgsE2TV-GKaZQ5VT-41">
          <mxGeometry relative="1" as="geometry">
            <Array as="points">
              <mxPoint x="380" y="510" />
              <mxPoint x="520" y="510" />
            </Array>
          </mxGeometry>
        </mxCell>
        <mxCell id="JUvlRgsE2TV-GKaZQ5VT-23" value="h&lt;span style=&quot;font-size: 10px&quot;&gt;&lt;sub&gt;3&lt;/sub&gt;&lt;/span&gt;" style="rounded=0;whiteSpace=wrap;html=1;rotation=0;direction=north;" vertex="1" parent="1">
          <mxGeometry x="350" y="513" width="30" height="75" as="geometry" />
        </mxCell>
        <mxCell id="JUvlRgsE2TV-GKaZQ5VT-24" style="edgeStyle=orthogonalEdgeStyle;rounded=0;orthogonalLoop=1;jettySize=auto;html=1;exitX=1;exitY=0.5;exitDx=0;exitDy=0;" edge="1" parent="1" source="JUvlRgsE2TV-GKaZQ5VT-25" target="JUvlRgsE2TV-GKaZQ5VT-28">
          <mxGeometry relative="1" as="geometry" />
        </mxCell>
        <mxCell id="JUvlRgsE2TV-GKaZQ5VT-86" style="edgeStyle=orthogonalEdgeStyle;curved=1;rounded=0;orthogonalLoop=1;jettySize=auto;html=1;exitX=1;exitY=0.5;exitDx=0;exitDy=0;entryX=0;entryY=0.25;entryDx=0;entryDy=0;dashed=1;" edge="1" parent="1" source="JUvlRgsE2TV-GKaZQ5VT-25" target="JUvlRgsE2TV-GKaZQ5VT-46">
          <mxGeometry relative="1" as="geometry" />
        </mxCell>
        <mxCell id="JUvlRgsE2TV-GKaZQ5VT-87" style="edgeStyle=orthogonalEdgeStyle;curved=1;rounded=0;orthogonalLoop=1;jettySize=auto;html=1;exitX=1;exitY=0.5;exitDx=0;exitDy=0;entryX=0;entryY=0.25;entryDx=0;entryDy=0;dashed=1;" edge="1" parent="1" source="JUvlRgsE2TV-GKaZQ5VT-25" target="JUvlRgsE2TV-GKaZQ5VT-53">
          <mxGeometry relative="1" as="geometry" />
        </mxCell>
        <mxCell id="JUvlRgsE2TV-GKaZQ5VT-25" value="&lt;span style=&quot;font-size: 10px&quot;&gt;m&lt;/span&gt;&lt;span style=&quot;font-size: 8.33333px&quot;&gt;&lt;sub&gt;3&lt;/sub&gt;&lt;/span&gt;" style="rounded=0;whiteSpace=wrap;html=1;rotation=0;direction=north;" vertex="1" parent="1">
          <mxGeometry x="350" y="410" width="30" height="75" as="geometry" />
        </mxCell>
        <mxCell id="JUvlRgsE2TV-GKaZQ5VT-26" style="edgeStyle=orthogonalEdgeStyle;rounded=0;orthogonalLoop=1;jettySize=auto;html=1;exitX=1;exitY=0.5;exitDx=0;exitDy=0;entryX=0;entryY=0.5;entryDx=0;entryDy=0;" edge="1" parent="1" source="JUvlRgsE2TV-GKaZQ5VT-27" target="JUvlRgsE2TV-GKaZQ5VT-23">
          <mxGeometry relative="1" as="geometry" />
        </mxCell>
        <mxCell id="JUvlRgsE2TV-GKaZQ5VT-27" value="&lt;span style=&quot;font-size: 10px&quot;&gt;x&lt;sub&gt;0&lt;/sub&gt;&lt;/span&gt;" style="rounded=0;whiteSpace=wrap;html=1;rotation=0;direction=north;" vertex="1" parent="1">
          <mxGeometry x="350" y="621" width="30" height="75" as="geometry" />
        </mxCell>
        <mxCell id="JUvlRgsE2TV-GKaZQ5VT-28" value="&lt;span style=&quot;font-size: 10px&quot;&gt;x&lt;/span&gt;&lt;span style=&quot;font-size: 6.94444px&quot;&gt;&lt;sub&gt;3&lt;/sub&gt;&lt;/span&gt;" style="rounded=0;whiteSpace=wrap;html=1;rotation=0;direction=north;fillColor=#FFD966;" vertex="1" parent="1">
          <mxGeometry x="350" y="296" width="30" height="75" as="geometry" />
        </mxCell>
        <mxCell id="JUvlRgsE2TV-GKaZQ5VT-29" style="edgeStyle=orthogonalEdgeStyle;rounded=0;orthogonalLoop=1;jettySize=auto;html=1;exitX=0.5;exitY=1;exitDx=0;exitDy=0;entryX=0.5;entryY=0;entryDx=0;entryDy=0;" edge="1" parent="1" source="JUvlRgsE2TV-GKaZQ5VT-30" target="JUvlRgsE2TV-GKaZQ5VT-32">
          <mxGeometry relative="1" as="geometry" />
        </mxCell>
        <mxCell id="JUvlRgsE2TV-GKaZQ5VT-30" value="h&lt;sub&gt;0&lt;/sub&gt;" style="rounded=0;whiteSpace=wrap;html=1;rotation=0;direction=north;" vertex="1" parent="1">
          <mxGeometry x="410" y="513" width="30" height="75" as="geometry" />
        </mxCell>
        <mxCell id="JUvlRgsE2TV-GKaZQ5VT-31" style="edgeStyle=orthogonalEdgeStyle;rounded=0;orthogonalLoop=1;jettySize=auto;html=1;exitX=1;exitY=0.5;exitDx=0;exitDy=0;entryX=0;entryY=0.5;entryDx=0;entryDy=0;" edge="1" parent="1" source="JUvlRgsE2TV-GKaZQ5VT-32" target="JUvlRgsE2TV-GKaZQ5VT-34">
          <mxGeometry relative="1" as="geometry" />
        </mxCell>
        <mxCell id="JUvlRgsE2TV-GKaZQ5VT-108" style="edgeStyle=orthogonalEdgeStyle;curved=1;rounded=0;orthogonalLoop=1;jettySize=auto;html=1;exitX=0.75;exitY=1;exitDx=0;exitDy=0;entryX=0.75;entryY=0;entryDx=0;entryDy=0;dashed=1;" edge="1" parent="1" source="JUvlRgsE2TV-GKaZQ5VT-32" target="JUvlRgsE2TV-GKaZQ5VT-69">
          <mxGeometry relative="1" as="geometry">
            <Array as="points">
              <mxPoint x="490" y="500" />
              <mxPoint x="780" y="500" />
            </Array>
          </mxGeometry>
        </mxCell>
        <mxCell id="JUvlRgsE2TV-GKaZQ5VT-32" value="h&lt;span style=&quot;font-size: 10px&quot;&gt;&lt;sub&gt;4&lt;/sub&gt;&lt;/span&gt;" style="rounded=0;whiteSpace=wrap;html=1;rotation=0;direction=north;" vertex="1" parent="1">
          <mxGeometry x="460" y="513" width="30" height="75" as="geometry" />
        </mxCell>
        <mxCell id="JUvlRgsE2TV-GKaZQ5VT-33" style="edgeStyle=orthogonalEdgeStyle;rounded=0;orthogonalLoop=1;jettySize=auto;html=1;exitX=1;exitY=0.5;exitDx=0;exitDy=0;" edge="1" parent="1" source="JUvlRgsE2TV-GKaZQ5VT-34" target="JUvlRgsE2TV-GKaZQ5VT-37">
          <mxGeometry relative="1" as="geometry" />
        </mxCell>
        <mxCell id="JUvlRgsE2TV-GKaZQ5VT-34" value="&lt;span style=&quot;font-size: 10px&quot;&gt;m&lt;/span&gt;&lt;span style=&quot;font-size: 8.33333px&quot;&gt;&lt;sub&gt;4&lt;/sub&gt;&lt;/span&gt;" style="rounded=0;whiteSpace=wrap;html=1;rotation=0;direction=north;" vertex="1" parent="1">
          <mxGeometry x="460" y="410" width="30" height="75" as="geometry" />
        </mxCell>
        <mxCell id="JUvlRgsE2TV-GKaZQ5VT-35" style="edgeStyle=orthogonalEdgeStyle;rounded=0;orthogonalLoop=1;jettySize=auto;html=1;exitX=1;exitY=0.5;exitDx=0;exitDy=0;entryX=0;entryY=0.5;entryDx=0;entryDy=0;" edge="1" parent="1" source="JUvlRgsE2TV-GKaZQ5VT-36" target="JUvlRgsE2TV-GKaZQ5VT-32">
          <mxGeometry relative="1" as="geometry" />
        </mxCell>
        <mxCell id="JUvlRgsE2TV-GKaZQ5VT-36" value="&lt;span style=&quot;font-size: 10px&quot;&gt;x&lt;sub&gt;0&lt;/sub&gt;&lt;/span&gt;" style="rounded=0;whiteSpace=wrap;html=1;rotation=0;direction=north;" vertex="1" parent="1">
          <mxGeometry x="460" y="621" width="30" height="75" as="geometry" />
        </mxCell>
        <mxCell id="JUvlRgsE2TV-GKaZQ5VT-37" value="&lt;span style=&quot;font-size: 10px&quot;&gt;x&lt;/span&gt;&lt;span style=&quot;font-size: 6.94444px&quot;&gt;&lt;sub&gt;4&lt;/sub&gt;&lt;/span&gt;" style="rounded=0;whiteSpace=wrap;html=1;rotation=0;direction=north;fillColor=#F19C99;" vertex="1" parent="1">
          <mxGeometry x="460" y="296" width="30" height="75" as="geometry" />
        </mxCell>
        <mxCell id="JUvlRgsE2TV-GKaZQ5VT-38" style="edgeStyle=orthogonalEdgeStyle;rounded=0;orthogonalLoop=1;jettySize=auto;html=1;exitX=0.5;exitY=1;exitDx=0;exitDy=0;entryX=0.5;entryY=0;entryDx=0;entryDy=0;" edge="1" parent="1" target="JUvlRgsE2TV-GKaZQ5VT-41">
          <mxGeometry relative="1" as="geometry">
            <mxPoint x="500" y="550.5" as="sourcePoint" />
          </mxGeometry>
        </mxCell>
        <mxCell id="JUvlRgsE2TV-GKaZQ5VT-39" style="edgeStyle=orthogonalEdgeStyle;rounded=0;orthogonalLoop=1;jettySize=auto;html=1;exitX=0.5;exitY=1;exitDx=0;exitDy=0;entryX=0.5;entryY=0;entryDx=0;entryDy=0;" edge="1" parent="1" source="JUvlRgsE2TV-GKaZQ5VT-41" target="JUvlRgsE2TV-GKaZQ5VT-48">
          <mxGeometry relative="1" as="geometry" />
        </mxCell>
        <mxCell id="JUvlRgsE2TV-GKaZQ5VT-40" style="edgeStyle=orthogonalEdgeStyle;rounded=0;orthogonalLoop=1;jettySize=auto;html=1;exitX=1;exitY=0.5;exitDx=0;exitDy=0;entryX=0;entryY=0.5;entryDx=0;entryDy=0;" edge="1" parent="1" source="JUvlRgsE2TV-GKaZQ5VT-41" target="JUvlRgsE2TV-GKaZQ5VT-43">
          <mxGeometry relative="1" as="geometry" />
        </mxCell>
        <mxCell id="JUvlRgsE2TV-GKaZQ5VT-41" value="h&lt;span style=&quot;font-size: 10px&quot;&gt;&lt;sub&gt;5&lt;/sub&gt;&lt;/span&gt;" style="rounded=0;whiteSpace=wrap;html=1;rotation=0;direction=north;" vertex="1" parent="1">
          <mxGeometry x="520" y="513" width="30" height="75" as="geometry" />
        </mxCell>
        <mxCell id="JUvlRgsE2TV-GKaZQ5VT-42" style="edgeStyle=orthogonalEdgeStyle;rounded=0;orthogonalLoop=1;jettySize=auto;html=1;exitX=1;exitY=0.5;exitDx=0;exitDy=0;" edge="1" parent="1" source="JUvlRgsE2TV-GKaZQ5VT-43" target="JUvlRgsE2TV-GKaZQ5VT-46">
          <mxGeometry relative="1" as="geometry" />
        </mxCell>
        <mxCell id="JUvlRgsE2TV-GKaZQ5VT-88" style="edgeStyle=orthogonalEdgeStyle;curved=1;rounded=0;orthogonalLoop=1;jettySize=auto;html=1;exitX=1;exitY=0.25;exitDx=0;exitDy=0;entryX=0;entryY=0.75;entryDx=0;entryDy=0;dashed=1;" edge="1" parent="1" source="JUvlRgsE2TV-GKaZQ5VT-43" target="JUvlRgsE2TV-GKaZQ5VT-53">
          <mxGeometry relative="1" as="geometry" />
        </mxCell>
        <mxCell id="JUvlRgsE2TV-GKaZQ5VT-43" value="&lt;span style=&quot;font-size: 10px&quot;&gt;m&lt;/span&gt;&lt;span style=&quot;font-size: 8.33333px&quot;&gt;&lt;sub&gt;5&lt;/sub&gt;&lt;/span&gt;" style="rounded=0;whiteSpace=wrap;html=1;rotation=0;direction=north;" vertex="1" parent="1">
          <mxGeometry x="520" y="410" width="30" height="75" as="geometry" />
        </mxCell>
        <mxCell id="JUvlRgsE2TV-GKaZQ5VT-44" style="edgeStyle=orthogonalEdgeStyle;rounded=0;orthogonalLoop=1;jettySize=auto;html=1;exitX=1;exitY=0.5;exitDx=0;exitDy=0;entryX=0;entryY=0.5;entryDx=0;entryDy=0;" edge="1" parent="1" source="JUvlRgsE2TV-GKaZQ5VT-45" target="JUvlRgsE2TV-GKaZQ5VT-41">
          <mxGeometry relative="1" as="geometry" />
        </mxCell>
        <mxCell id="JUvlRgsE2TV-GKaZQ5VT-45" value="&lt;span style=&quot;font-size: 10px&quot;&gt;x&lt;/span&gt;&lt;span style=&quot;font-size: 8.33333px&quot;&gt;&lt;sub&gt;3&lt;/sub&gt;&lt;/span&gt;" style="rounded=0;whiteSpace=wrap;html=1;rotation=0;direction=north;fillColor=#FFD966;" vertex="1" parent="1">
          <mxGeometry x="520" y="621" width="30" height="75" as="geometry" />
        </mxCell>
        <mxCell id="JUvlRgsE2TV-GKaZQ5VT-46" value="&lt;span style=&quot;font-size: 10px&quot;&gt;x&lt;/span&gt;&lt;span style=&quot;font-size: 6.94444px&quot;&gt;&lt;sub&gt;5&lt;/sub&gt;&lt;/span&gt;" style="rounded=0;whiteSpace=wrap;html=1;rotation=0;direction=north;fillColor=#FFD966;" vertex="1" parent="1">
          <mxGeometry x="520" y="296" width="30" height="75" as="geometry" />
        </mxCell>
        <mxCell id="JUvlRgsE2TV-GKaZQ5VT-47" style="edgeStyle=orthogonalEdgeStyle;rounded=0;orthogonalLoop=1;jettySize=auto;html=1;exitX=1;exitY=0.5;exitDx=0;exitDy=0;entryX=0;entryY=0.5;entryDx=0;entryDy=0;" edge="1" parent="1" source="JUvlRgsE2TV-GKaZQ5VT-48" target="JUvlRgsE2TV-GKaZQ5VT-50">
          <mxGeometry relative="1" as="geometry" />
        </mxCell>
        <mxCell id="JUvlRgsE2TV-GKaZQ5VT-109" style="edgeStyle=orthogonalEdgeStyle;curved=1;rounded=0;orthogonalLoop=1;jettySize=auto;html=1;exitX=0.75;exitY=1;exitDx=0;exitDy=0;entryX=0.75;entryY=0;entryDx=0;entryDy=0;dashed=1;" edge="1" parent="1" source="JUvlRgsE2TV-GKaZQ5VT-48" target="JUvlRgsE2TV-GKaZQ5VT-62">
          <mxGeometry relative="1" as="geometry">
            <Array as="points">
              <mxPoint x="610" y="510" />
              <mxPoint x="720" y="510" />
            </Array>
          </mxGeometry>
        </mxCell>
        <mxCell id="JUvlRgsE2TV-GKaZQ5VT-48" value="h&lt;span style=&quot;font-size: 10px&quot;&gt;&lt;sub&gt;6&lt;/sub&gt;&lt;/span&gt;" style="rounded=0;whiteSpace=wrap;html=1;rotation=0;direction=north;" vertex="1" parent="1">
          <mxGeometry x="580" y="513" width="30" height="75" as="geometry" />
        </mxCell>
        <mxCell id="JUvlRgsE2TV-GKaZQ5VT-49" style="edgeStyle=orthogonalEdgeStyle;rounded=0;orthogonalLoop=1;jettySize=auto;html=1;exitX=1;exitY=0.5;exitDx=0;exitDy=0;entryX=0;entryY=0.5;entryDx=0;entryDy=0;" edge="1" parent="1" source="JUvlRgsE2TV-GKaZQ5VT-50" target="JUvlRgsE2TV-GKaZQ5VT-53">
          <mxGeometry relative="1" as="geometry" />
        </mxCell>
        <mxCell id="JUvlRgsE2TV-GKaZQ5VT-90" style="rounded=0;orthogonalLoop=1;jettySize=auto;html=1;dashed=1;" edge="1" parent="1">
          <mxGeometry relative="1" as="geometry">
            <mxPoint x="650" y="380" as="targetPoint" />
            <mxPoint x="620" y="390" as="sourcePoint" />
          </mxGeometry>
        </mxCell>
        <mxCell id="JUvlRgsE2TV-GKaZQ5VT-50" value="&lt;span style=&quot;font-size: 10px&quot;&gt;m&lt;/span&gt;&lt;span style=&quot;font-size: 6.94444px&quot;&gt;&lt;sub&gt;6&lt;/sub&gt;&lt;/span&gt;" style="rounded=0;whiteSpace=wrap;html=1;rotation=0;direction=north;" vertex="1" parent="1">
          <mxGeometry x="580" y="410" width="30" height="75" as="geometry" />
        </mxCell>
        <mxCell id="JUvlRgsE2TV-GKaZQ5VT-51" style="edgeStyle=orthogonalEdgeStyle;rounded=0;orthogonalLoop=1;jettySize=auto;html=1;exitX=1;exitY=0.5;exitDx=0;exitDy=0;entryX=0;entryY=0.5;entryDx=0;entryDy=0;" edge="1" parent="1" source="JUvlRgsE2TV-GKaZQ5VT-52" target="JUvlRgsE2TV-GKaZQ5VT-48">
          <mxGeometry relative="1" as="geometry" />
        </mxCell>
        <mxCell id="JUvlRgsE2TV-GKaZQ5VT-52" value="&lt;span style=&quot;font-size: 10px&quot;&gt;x&lt;/span&gt;&lt;span style=&quot;font-size: 8.33333px&quot;&gt;&lt;sub&gt;5&lt;/sub&gt;&lt;/span&gt;" style="rounded=0;whiteSpace=wrap;html=1;rotation=0;direction=north;fillColor=#FFD966;" vertex="1" parent="1">
          <mxGeometry x="580" y="621" width="30" height="75" as="geometry" />
        </mxCell>
        <mxCell id="JUvlRgsE2TV-GKaZQ5VT-53" value="&lt;span style=&quot;font-size: 10px&quot;&gt;x&lt;/span&gt;&lt;span style=&quot;font-size: 6.94444px&quot;&gt;&lt;sub&gt;6&lt;/sub&gt;&lt;/span&gt;" style="rounded=0;whiteSpace=wrap;html=1;rotation=0;direction=north;fillColor=#FFD966;" vertex="1" parent="1">
          <mxGeometry x="580" y="296" width="30" height="75" as="geometry" />
        </mxCell>
        <mxCell id="JUvlRgsE2TV-GKaZQ5VT-54" style="edgeStyle=orthogonalEdgeStyle;rounded=0;orthogonalLoop=1;jettySize=auto;html=1;exitX=1;exitY=0.5;exitDx=0;exitDy=0;entryX=0;entryY=0.5;entryDx=0;entryDy=0;dashed=1;" edge="1" parent="1" source="JUvlRgsE2TV-GKaZQ5VT-55" target="JUvlRgsE2TV-GKaZQ5VT-57">
          <mxGeometry relative="1" as="geometry" />
        </mxCell>
        <mxCell id="JUvlRgsE2TV-GKaZQ5VT-55" value="h&lt;span style=&quot;font-size: 10px&quot;&gt;&lt;sub&gt;7&lt;/sub&gt;&lt;/span&gt;" style="rounded=0;whiteSpace=wrap;html=1;rotation=0;direction=north;dashed=1;" vertex="1" parent="1">
          <mxGeometry x="650" y="513" width="30" height="75" as="geometry" />
        </mxCell>
        <mxCell id="JUvlRgsE2TV-GKaZQ5VT-56" style="edgeStyle=orthogonalEdgeStyle;rounded=0;orthogonalLoop=1;jettySize=auto;html=1;exitX=1;exitY=0.5;exitDx=0;exitDy=0;entryX=0;entryY=0.5;entryDx=0;entryDy=0;dashed=1;" edge="1" parent="1" source="JUvlRgsE2TV-GKaZQ5VT-57" target="JUvlRgsE2TV-GKaZQ5VT-60">
          <mxGeometry relative="1" as="geometry" />
        </mxCell>
        <mxCell id="JUvlRgsE2TV-GKaZQ5VT-57" value="&lt;span style=&quot;font-size: 10px&quot;&gt;m&lt;/span&gt;&lt;span style=&quot;font-size: 8.33333px&quot;&gt;&lt;sub&gt;7&lt;/sub&gt;&lt;/span&gt;" style="rounded=0;whiteSpace=wrap;html=1;rotation=0;direction=north;dashed=1;" vertex="1" parent="1">
          <mxGeometry x="650" y="410" width="30" height="75" as="geometry" />
        </mxCell>
        <mxCell id="JUvlRgsE2TV-GKaZQ5VT-58" style="edgeStyle=orthogonalEdgeStyle;rounded=0;orthogonalLoop=1;jettySize=auto;html=1;exitX=1;exitY=0.5;exitDx=0;exitDy=0;entryX=0;entryY=0.5;entryDx=0;entryDy=0;dashed=1;" edge="1" parent="1" source="JUvlRgsE2TV-GKaZQ5VT-59" target="JUvlRgsE2TV-GKaZQ5VT-55">
          <mxGeometry relative="1" as="geometry" />
        </mxCell>
        <mxCell id="JUvlRgsE2TV-GKaZQ5VT-59" value="&lt;span style=&quot;font-size: 10px&quot;&gt;x&lt;/span&gt;&lt;span style=&quot;font-size: 8.33333px&quot;&gt;&lt;sub&gt;2&lt;/sub&gt;&lt;/span&gt;" style="rounded=0;whiteSpace=wrap;html=1;rotation=0;direction=north;dashed=1;fillColor=#99CCFF;" vertex="1" parent="1">
          <mxGeometry x="650" y="621" width="30" height="75" as="geometry" />
        </mxCell>
        <mxCell id="JUvlRgsE2TV-GKaZQ5VT-60" value="&lt;span style=&quot;font-size: 10px&quot;&gt;x&lt;/span&gt;&lt;span style=&quot;font-size: 6.94444px&quot;&gt;&lt;sub&gt;7&lt;/sub&gt;&lt;/span&gt;" style="rounded=0;whiteSpace=wrap;html=1;rotation=0;direction=north;dashed=1;fillColor=#99CCFF;" vertex="1" parent="1">
          <mxGeometry x="650" y="296" width="30" height="75" as="geometry" />
        </mxCell>
        <mxCell id="JUvlRgsE2TV-GKaZQ5VT-61" style="edgeStyle=orthogonalEdgeStyle;rounded=0;orthogonalLoop=1;jettySize=auto;html=1;exitX=1;exitY=0.5;exitDx=0;exitDy=0;entryX=0;entryY=0.5;entryDx=0;entryDy=0;dashed=1;" edge="1" parent="1" source="JUvlRgsE2TV-GKaZQ5VT-62" target="JUvlRgsE2TV-GKaZQ5VT-64">
          <mxGeometry relative="1" as="geometry" />
        </mxCell>
        <mxCell id="JUvlRgsE2TV-GKaZQ5VT-62" value="h&lt;span style=&quot;font-size: 10px&quot;&gt;&lt;sub&gt;7&lt;/sub&gt;&lt;/span&gt;" style="rounded=0;whiteSpace=wrap;html=1;rotation=0;direction=north;dashed=1;" vertex="1" parent="1">
          <mxGeometry x="720" y="513" width="30" height="75" as="geometry" />
        </mxCell>
        <mxCell id="JUvlRgsE2TV-GKaZQ5VT-63" style="edgeStyle=orthogonalEdgeStyle;rounded=0;orthogonalLoop=1;jettySize=auto;html=1;exitX=1;exitY=0.5;exitDx=0;exitDy=0;entryX=0;entryY=0.5;entryDx=0;entryDy=0;dashed=1;" edge="1" parent="1" source="JUvlRgsE2TV-GKaZQ5VT-64" target="JUvlRgsE2TV-GKaZQ5VT-67">
          <mxGeometry relative="1" as="geometry" />
        </mxCell>
        <mxCell id="JUvlRgsE2TV-GKaZQ5VT-64" value="&lt;span style=&quot;font-size: 10px&quot;&gt;m&lt;/span&gt;&lt;span style=&quot;font-size: 8.33333px&quot;&gt;&lt;sub&gt;7&lt;/sub&gt;&lt;/span&gt;" style="rounded=0;whiteSpace=wrap;html=1;rotation=0;direction=north;dashed=1;" vertex="1" parent="1">
          <mxGeometry x="720" y="410" width="30" height="75" as="geometry" />
        </mxCell>
        <mxCell id="JUvlRgsE2TV-GKaZQ5VT-65" style="edgeStyle=orthogonalEdgeStyle;rounded=0;orthogonalLoop=1;jettySize=auto;html=1;exitX=1;exitY=0.5;exitDx=0;exitDy=0;entryX=0;entryY=0.5;entryDx=0;entryDy=0;dashed=1;" edge="1" parent="1" source="JUvlRgsE2TV-GKaZQ5VT-66" target="JUvlRgsE2TV-GKaZQ5VT-62">
          <mxGeometry relative="1" as="geometry" />
        </mxCell>
        <mxCell id="JUvlRgsE2TV-GKaZQ5VT-66" value="&lt;span style=&quot;font-size: 10px&quot;&gt;x&lt;/span&gt;&lt;span style=&quot;font-size: 8.33333px&quot;&gt;&lt;sub&gt;6&lt;/sub&gt;&lt;/span&gt;" style="rounded=0;whiteSpace=wrap;html=1;rotation=0;direction=north;dashed=1;fillColor=#FFD966;" vertex="1" parent="1">
          <mxGeometry x="720" y="621" width="30" height="75" as="geometry" />
        </mxCell>
        <mxCell id="JUvlRgsE2TV-GKaZQ5VT-67" value="&lt;span style=&quot;font-size: 10px&quot;&gt;x&lt;/span&gt;&lt;span style=&quot;font-size: 6.94444px&quot;&gt;&lt;sub&gt;7&lt;/sub&gt;&lt;/span&gt;" style="rounded=0;whiteSpace=wrap;html=1;rotation=0;direction=north;dashed=1;fillColor=#FFD966;" vertex="1" parent="1">
          <mxGeometry x="720" y="296" width="30" height="75" as="geometry" />
        </mxCell>
        <mxCell id="JUvlRgsE2TV-GKaZQ5VT-68" style="edgeStyle=orthogonalEdgeStyle;rounded=0;orthogonalLoop=1;jettySize=auto;html=1;exitX=1;exitY=0.5;exitDx=0;exitDy=0;entryX=0;entryY=0.5;entryDx=0;entryDy=0;dashed=1;" edge="1" parent="1" source="JUvlRgsE2TV-GKaZQ5VT-69" target="JUvlRgsE2TV-GKaZQ5VT-71">
          <mxGeometry relative="1" as="geometry" />
        </mxCell>
        <mxCell id="JUvlRgsE2TV-GKaZQ5VT-69" value="h&lt;span style=&quot;font-size: 10px&quot;&gt;&lt;sub&gt;7&lt;/sub&gt;&lt;/span&gt;" style="rounded=0;whiteSpace=wrap;html=1;rotation=0;direction=north;dashed=1;" vertex="1" parent="1">
          <mxGeometry x="780" y="513" width="30" height="75" as="geometry" />
        </mxCell>
        <mxCell id="JUvlRgsE2TV-GKaZQ5VT-70" style="edgeStyle=orthogonalEdgeStyle;rounded=0;orthogonalLoop=1;jettySize=auto;html=1;exitX=1;exitY=0.5;exitDx=0;exitDy=0;entryX=0;entryY=0.5;entryDx=0;entryDy=0;dashed=1;" edge="1" parent="1" source="JUvlRgsE2TV-GKaZQ5VT-71" target="JUvlRgsE2TV-GKaZQ5VT-74">
          <mxGeometry relative="1" as="geometry" />
        </mxCell>
        <mxCell id="JUvlRgsE2TV-GKaZQ5VT-71" value="&lt;span style=&quot;font-size: 10px&quot;&gt;m&lt;/span&gt;&lt;span style=&quot;font-size: 8.33333px&quot;&gt;&lt;sub&gt;7&lt;/sub&gt;&lt;/span&gt;" style="rounded=0;whiteSpace=wrap;html=1;rotation=0;direction=north;dashed=1;" vertex="1" parent="1">
          <mxGeometry x="780" y="410" width="30" height="75" as="geometry" />
        </mxCell>
        <mxCell id="JUvlRgsE2TV-GKaZQ5VT-72" style="edgeStyle=orthogonalEdgeStyle;rounded=0;orthogonalLoop=1;jettySize=auto;html=1;exitX=1;exitY=0.5;exitDx=0;exitDy=0;entryX=0;entryY=0.5;entryDx=0;entryDy=0;dashed=1;" edge="1" parent="1" source="JUvlRgsE2TV-GKaZQ5VT-73" target="JUvlRgsE2TV-GKaZQ5VT-69">
          <mxGeometry relative="1" as="geometry" />
        </mxCell>
        <mxCell id="JUvlRgsE2TV-GKaZQ5VT-73" value="&lt;span style=&quot;font-size: 10px&quot;&gt;x&lt;/span&gt;&lt;span style=&quot;font-size: 8.33333px&quot;&gt;&lt;sub&gt;4&lt;/sub&gt;&lt;/span&gt;" style="rounded=0;whiteSpace=wrap;html=1;rotation=0;direction=north;dashed=1;fillColor=#F19C99;" vertex="1" parent="1">
          <mxGeometry x="780" y="621" width="30" height="75" as="geometry" />
        </mxCell>
        <mxCell id="JUvlRgsE2TV-GKaZQ5VT-74" value="&lt;span style=&quot;font-size: 10px&quot;&gt;x&lt;/span&gt;&lt;span style=&quot;font-size: 6.94444px&quot;&gt;&lt;sub&gt;7&lt;/sub&gt;&lt;/span&gt;" style="rounded=0;whiteSpace=wrap;html=1;rotation=0;direction=north;dashed=1;fillColor=#F19C99;" vertex="1" parent="1">
          <mxGeometry x="780" y="296" width="30" height="75" as="geometry" />
        </mxCell>
        <mxCell id="JUvlRgsE2TV-GKaZQ5VT-75" style="edgeStyle=orthogonalEdgeStyle;rounded=0;orthogonalLoop=1;jettySize=auto;html=1;exitX=0.5;exitY=1;exitDx=0;exitDy=0;entryX=0.5;entryY=0;entryDx=0;entryDy=0;dashed=1;" edge="1" parent="1" source="JUvlRgsE2TV-GKaZQ5VT-76" target="JUvlRgsE2TV-GKaZQ5VT-78">
          <mxGeometry relative="1" as="geometry" />
        </mxCell>
        <mxCell id="JUvlRgsE2TV-GKaZQ5VT-76" value="h&lt;sub&gt;0&lt;/sub&gt;" style="rounded=0;whiteSpace=wrap;html=1;rotation=0;direction=north;dashed=1;" vertex="1" parent="1">
          <mxGeometry x="850" y="513" width="30" height="75" as="geometry" />
        </mxCell>
        <mxCell id="JUvlRgsE2TV-GKaZQ5VT-77" style="edgeStyle=orthogonalEdgeStyle;rounded=0;orthogonalLoop=1;jettySize=auto;html=1;exitX=1;exitY=0.5;exitDx=0;exitDy=0;entryX=0;entryY=0.5;entryDx=0;entryDy=0;dashed=1;" edge="1" parent="1" source="JUvlRgsE2TV-GKaZQ5VT-78" target="JUvlRgsE2TV-GKaZQ5VT-80">
          <mxGeometry relative="1" as="geometry" />
        </mxCell>
        <mxCell id="JUvlRgsE2TV-GKaZQ5VT-78" value="h&lt;span style=&quot;font-size: 10px&quot;&gt;&lt;sub&gt;7&lt;/sub&gt;&lt;/span&gt;" style="rounded=0;whiteSpace=wrap;html=1;rotation=0;direction=north;dashed=1;" vertex="1" parent="1">
          <mxGeometry x="900" y="513" width="30" height="75" as="geometry" />
        </mxCell>
        <mxCell id="JUvlRgsE2TV-GKaZQ5VT-79" style="edgeStyle=orthogonalEdgeStyle;rounded=0;orthogonalLoop=1;jettySize=auto;html=1;exitX=1;exitY=0.5;exitDx=0;exitDy=0;dashed=1;" edge="1" parent="1" source="JUvlRgsE2TV-GKaZQ5VT-80" target="JUvlRgsE2TV-GKaZQ5VT-83">
          <mxGeometry relative="1" as="geometry" />
        </mxCell>
        <mxCell id="JUvlRgsE2TV-GKaZQ5VT-80" value="&lt;span style=&quot;font-size: 10px&quot;&gt;m&lt;/span&gt;&lt;span style=&quot;font-size: 8.33333px&quot;&gt;&lt;sub&gt;7&lt;/sub&gt;&lt;/span&gt;" style="rounded=0;whiteSpace=wrap;html=1;rotation=0;direction=north;dashed=1;" vertex="1" parent="1">
          <mxGeometry x="900" y="410" width="30" height="75" as="geometry" />
        </mxCell>
        <mxCell id="JUvlRgsE2TV-GKaZQ5VT-81" style="edgeStyle=orthogonalEdgeStyle;rounded=0;orthogonalLoop=1;jettySize=auto;html=1;exitX=1;exitY=0.5;exitDx=0;exitDy=0;entryX=0;entryY=0.5;entryDx=0;entryDy=0;dashed=1;" edge="1" parent="1" source="JUvlRgsE2TV-GKaZQ5VT-82" target="JUvlRgsE2TV-GKaZQ5VT-78">
          <mxGeometry relative="1" as="geometry" />
        </mxCell>
        <mxCell id="JUvlRgsE2TV-GKaZQ5VT-82" value="&lt;span style=&quot;font-size: 10px&quot;&gt;x&lt;sub&gt;0&lt;/sub&gt;&lt;/span&gt;" style="rounded=0;whiteSpace=wrap;html=1;rotation=0;direction=north;dashed=1;" vertex="1" parent="1">
          <mxGeometry x="900" y="621" width="30" height="75" as="geometry" />
        </mxCell>
        <mxCell id="JUvlRgsE2TV-GKaZQ5VT-83" value="&lt;span style=&quot;font-size: 10px&quot;&gt;x&lt;/span&gt;&lt;span style=&quot;font-size: 6.94444px&quot;&gt;&lt;sub&gt;7&lt;/sub&gt;&lt;/span&gt;" style="rounded=0;whiteSpace=wrap;html=1;rotation=0;direction=north;dashed=1;fillColor=#67AB9F;" vertex="1" parent="1">
          <mxGeometry x="900" y="296" width="30" height="75" as="geometry" />
        </mxCell>
        <mxCell id="JUvlRgsE2TV-GKaZQ5VT-91" style="rounded=0;orthogonalLoop=1;jettySize=auto;html=1;dashed=1;" edge="1" parent="1">
          <mxGeometry relative="1" as="geometry">
            <mxPoint x="720" y="380" as="targetPoint" />
            <mxPoint x="690" y="390" as="sourcePoint" />
          </mxGeometry>
        </mxCell>
        <mxCell id="JUvlRgsE2TV-GKaZQ5VT-92" style="rounded=0;orthogonalLoop=1;jettySize=auto;html=1;dashed=1;" edge="1" parent="1">
          <mxGeometry relative="1" as="geometry">
            <mxPoint x="778" y="381" as="targetPoint" />
            <mxPoint x="748" y="391" as="sourcePoint" />
          </mxGeometry>
        </mxCell>
        <mxCell id="JUvlRgsE2TV-GKaZQ5VT-93" value="" style="endArrow=none;dashed=1;html=1;" edge="1" parent="1">
          <mxGeometry width="50" height="50" relative="1" as="geometry">
            <mxPoint x="630" y="720" as="sourcePoint" />
            <mxPoint x="630" y="250" as="targetPoint" />
          </mxGeometry>
        </mxCell>
        <mxCell id="JUvlRgsE2TV-GKaZQ5VT-94" value="" style="endArrow=none;dashed=1;html=1;" edge="1" parent="1">
          <mxGeometry width="50" height="50" relative="1" as="geometry">
            <mxPoint x="700" y="720" as="sourcePoint" />
            <mxPoint x="700" y="250" as="targetPoint" />
          </mxGeometry>
        </mxCell>
        <mxCell id="JUvlRgsE2TV-GKaZQ5VT-95" value="" style="endArrow=none;dashed=1;html=1;" edge="1" parent="1">
          <mxGeometry width="50" height="50" relative="1" as="geometry">
            <mxPoint x="765" y="720" as="sourcePoint" />
            <mxPoint x="765" y="250" as="targetPoint" />
          </mxGeometry>
        </mxCell>
        <mxCell id="JUvlRgsE2TV-GKaZQ5VT-96" value="" style="endArrow=none;dashed=1;html=1;" edge="1" parent="1">
          <mxGeometry width="50" height="50" relative="1" as="geometry">
            <mxPoint x="830" y="720" as="sourcePoint" />
            <mxPoint x="830" y="250" as="targetPoint" />
          </mxGeometry>
        </mxCell>
        <mxCell id="JUvlRgsE2TV-GKaZQ5VT-97" value="" style="endArrow=none;dashed=1;html=1;" edge="1" parent="1">
          <mxGeometry width="50" height="50" relative="1" as="geometry">
            <mxPoint x="945" y="720" as="sourcePoint" />
            <mxPoint x="945" y="250" as="targetPoint" />
          </mxGeometry>
        </mxCell>
        <mxCell id="JUvlRgsE2TV-GKaZQ5VT-98" value="current stage" style="text;html=1;strokeColor=none;fillColor=none;align=center;verticalAlign=middle;whiteSpace=wrap;rounded=0;dashed=1;fontStyle=1" vertex="1" parent="1">
          <mxGeometry x="330" y="250" width="100" height="20" as="geometry" />
        </mxCell>
        <mxCell id="JUvlRgsE2TV-GKaZQ5VT-100" value="y7=1&lt;sub&gt;&amp;nbsp; &amp;nbsp;&lt;/sub&gt;" style="text;html=1;strokeColor=none;fillColor=none;align=center;verticalAlign=middle;whiteSpace=wrap;rounded=0;dashed=1;fontStyle=1" vertex="1" parent="1">
          <mxGeometry x="645" y="250" width="40" height="20" as="geometry" />
        </mxCell>
        <mxCell id="JUvlRgsE2TV-GKaZQ5VT-101" value="y7=2" style="text;html=1;strokeColor=none;fillColor=none;align=center;verticalAlign=middle;whiteSpace=wrap;rounded=0;dashed=1;fontStyle=1" vertex="1" parent="1">
          <mxGeometry x="720" y="250" width="40" height="20" as="geometry" />
        </mxCell>
        <mxCell id="JUvlRgsE2TV-GKaZQ5VT-102" value="y7=3" style="text;html=1;strokeColor=none;fillColor=none;align=center;verticalAlign=middle;whiteSpace=wrap;rounded=0;dashed=1;fontStyle=1" vertex="1" parent="1">
          <mxGeometry x="782" y="250" width="40" height="20" as="geometry" />
        </mxCell>
        <mxCell id="JUvlRgsE2TV-GKaZQ5VT-103" value="y7=4" style="text;html=1;strokeColor=none;fillColor=none;align=center;verticalAlign=middle;whiteSpace=wrap;rounded=0;dashed=1;fontStyle=1" vertex="1" parent="1">
          <mxGeometry x="871" y="250" width="40" height="20" as="geometry" />
        </mxCell>
      </root>
    </mxGraphModel>
  </diagram>
</mxfile>
